<?xml version="1.0" standalone="no"?>
<!DOCTYPE svg PUBLIC "-//W3C//DTD SVG 20010904//EN"
 "http://www.w3.org/TR/2001/REC-SVG-20010904/DTD/svg10.dtd">
<svg version="1.0" xmlns="http://www.w3.org/2000/svg"
 width="1346.000000pt" height="2162.000000pt" viewBox="0 0 1346.000000 2162.000000"
 preserveAspectRatio="xMidYMid meet">

<g transform="translate(0.000000,2162.000000) scale(0.100000,-0.100000)"
fill="#000000" stroke="none">
<path d="M9163 21126 c-61 -19 -180 -86 -328 -183 -158 -104 -343 -239 -370
-269 -11 -13 -54 -51 -95 -84 -41 -34 -142 -126 -225 -204 -82 -78 -202 -188
-265 -243 -63 -55 -131 -120 -151 -144 -92 -113 -367 -550 -426 -676 -64 -139
-89 -308 -62 -435 35 -164 147 -282 318 -332 71 -21 274 -21 401 -1 161 27
360 104 490 191 30 20 118 68 194 106 154 77 374 198 776 427 355 202 472 250
589 238 60 -7 94 -27 128 -77 32 -46 43 -93 43 -185 0 -71 -4 -89 -35 -153
-75 -158 -266 -404 -548 -711 -300 -325 -322 -354 -405 -530 -55 -118 -131
-346 -168 -506 -15 -66 -36 -132 -46 -147 -40 -58 -68 -133 -68 -185 0 -45 -3
-53 -19 -53 -74 0 -150 -167 -187 -410 -17 -117 -31 -587 -20 -693 9 -82 53
-159 152 -265 59 -64 85 -105 155 -242 89 -175 241 -413 349 -545 92 -113 237
-255 278 -272 45 -19 73 -11 111 32 17 19 35 35 40 35 25 0 71 54 77 91 4 25
13 40 25 44 11 4 24 15 29 25 24 46 -52 137 -190 226 -88 57 -136 119 -224
294 l-66 128 25 94 c13 51 35 154 48 228 13 74 28 134 33 133 5 -2 35 -12 67
-23 32 -12 94 -23 138 -27 l79 -6 0 -85 c0 -143 43 -383 106 -589 25 -84 31
-92 51 -72 6 6 42 12 80 14 38 1 75 5 81 9 17 10 15 83 -4 147 -11 37 -15 74
-11 119 10 120 37 295 53 343 14 43 18 47 48 47 23 0 36 -6 42 -20 5 -11 36
-41 68 -67 33 -27 97 -95 142 -153 108 -140 208 -234 263 -248 48 -12 93 -3
123 25 11 10 34 22 51 28 22 7 38 22 52 50 12 22 33 53 48 69 46 49 32 114
-45 201 -45 51 -170 151 -265 212 l-62 40 77 5 c93 6 153 30 216 88 59 55 92
124 116 243 19 96 48 168 72 184 19 12 358 52 388 46 14 -2 42 -11 63 -19 42
-16 115 -18 136 -5 9 6 12 19 8 39 -6 28 -3 32 28 42 42 14 51 26 35 45 -8 10
-10 30 -6 60 7 42 5 46 -17 54 -14 6 -81 15 -149 21 -67 6 -150 19 -183 29
-33 10 -79 22 -103 26 -35 6 -43 11 -48 33 -18 75 -91 169 -184 237 -43 32
-49 42 -109 193 -76 193 -120 276 -148 280 -24 4 -111 -60 -254 -184 -85 -74
-101 -84 -135 -85 -22 0 -66 -10 -99 -23 l-59 -23 -51 52 c-59 61 -150 108
-256 131 -41 9 -79 19 -85 23 -6 3 -33 21 -60 39 -125 83 -325 92 -490 21 -45
-19 -48 -19 -66 -2 -77 69 -58 196 56 387 98 165 212 309 561 710 238 273 295
348 350 461 148 303 137 529 -28 609 -182 89 -477 28 -842 -171 -66 -37 -226
-131 -355 -211 -237 -147 -541 -311 -769 -416 -165 -77 -321 -110 -491 -104
-88 3 -126 9 -161 25 -65 29 -113 75 -140 135 -20 45 -24 69 -24 158 0 93 4
113 29 175 42 103 142 247 243 350 123 125 264 206 443 252 103 27 321 112
340 133 3 3 55 27 115 54 130 57 342 170 438 234 85 55 190 158 241 235 21 32
52 95 69 140 28 75 31 93 32 202 0 130 -14 192 -61 266 -23 38 -77 80 -99 78
-5 0 -29 -6 -52 -13z"/>
</g>
</svg>
