<?xml version="1.0" standalone="no"?>
<!DOCTYPE svg PUBLIC "-//W3C//DTD SVG 20010904//EN"
 "http://www.w3.org/TR/2001/REC-SVG-20010904/DTD/svg10.dtd">
<svg version="1.0" xmlns="http://www.w3.org/2000/svg"
 width="1346.000000pt" height="2162.000000pt" viewBox="0 0 1346.000000 2162.000000"
 preserveAspectRatio="xMidYMid meet">

<g transform="translate(0.000000,2162.000000) scale(0.100000,-0.100000)"
fill="#000000" stroke="none">
<path d="M9163 21126 c-61 -19 -180 -86 -325 -182 -148 -97 -364 -254 -360
-261 2 -2 -41 -41 -95 -85 -54 -45 -170 -149 -258 -232 -88 -83 -206 -191
-263 -240 -57 -49 -123 -114 -146 -145 -112 -146 -356 -535 -413 -658 -137
-295 -75 -604 144 -720 106 -57 160 -67 323 -60 80 4 174 11 209 17 142 24
333 100 465 184 31 20 120 68 198 107 155 78 374 198 778 428 355 202 472 250
589 238 60 -7 94 -27 128 -77 32 -46 43 -93 43 -185 0 -71 -4 -89 -35 -153
-75 -158 -266 -404 -548 -711 -300 -325 -322 -354 -405 -530 -55 -118 -131
-346 -168 -506 -15 -66 -36 -132 -46 -147 -40 -58 -68 -133 -68 -185 0 -45 -3
-53 -19 -53 -74 0 -150 -167 -187 -410 -17 -117 -31 -587 -20 -693 9 -82 53
-159 152 -265 59 -64 85 -105 155 -242 89 -175 241 -413 349 -545 92 -113 237
-255 278 -272 45 -19 73 -11 111 32 17 19 35 35 40 35 25 0 71 54 77 91 4 25
13 40 25 44 11 4 24 15 29 25 24 46 -52 137 -190 226 -88 57 -136 119 -224
294 l-66 128 25 94 c13 51 35 154 48 228 13 74 28 134 33 133 5 -2 35 -12 67
-23 32 -12 94 -23 138 -27 l79 -6 0 -85 c0 -143 43 -383 106 -589 25 -84 31
-92 51 -72 6 6 42 12 80 14 38 1 75 5 81 9 17 10 15 83 -4 147 -11 37 -15 74
-11 119 10 120 37 295 53 343 14 43 18 47 48 47 23 0 36 -6 42 -20 5 -11 36
-41 68 -67 33 -27 97 -95 142 -153 108 -140 208 -234 263 -248 48 -12 93 -3
123 25 11 10 34 22 51 28 22 7 38 22 52 50 12 22 33 53 48 69 46 49 32 114
-45 201 -45 51 -170 151 -265 212 l-62 40 77 5 c93 6 153 30 216 88 59 55 92
124 116 243 19 96 48 168 72 184 19 12 358 52 388 46 14 -2 42 -11 63 -19 42
-16 115 -18 136 -5 9 6 12 19 8 39 -6 28 -3 32 28 42 42 14 51 26 35 45 -8 10
-10 30 -6 60 7 42 5 46 -17 54 -14 6 -81 15 -149 21 -67 6 -150 19 -183 29
-33 10 -79 22 -103 26 -35 6 -43 11 -48 33 -18 75 -91 169 -184 237 -43 32
-49 42 -109 193 -76 193 -120 276 -148 280 -24 4 -111 -60 -254 -184 -85 -74
-101 -84 -135 -85 -22 0 -66 -10 -99 -23 l-59 -23 -51 52 c-59 61 -150 108
-256 131 -41 9 -79 19 -85 23 -6 3 -33 21 -60 39 -125 83 -325 92 -490 21 -45
-19 -48 -19 -66 -2 -77 69 -58 196 56 387 98 165 212 309 561 710 238 273 295
348 350 461 148 303 137 529 -28 609 -182 89 -477 28 -842 -171 -66 -37 -226
-131 -355 -211 -240 -149 -571 -327 -785 -425 -129 -58 -259 -89 -435 -102
-155 -12 -278 47 -335 160 -28 55 -30 68 -30 165 0 93 4 113 29 175 38 94 138
242 229 341 119 127 289 223 477 269 76 18 148 44 213 77 53 26 97 45 97 41 0
-5 4 -3 8 2 4 6 57 32 117 59 130 57 342 170 438 234 85 55 190 158 241 235
21 32 52 95 69 140 28 75 31 93 32 202 0 130 -14 192 -61 266 -23 38 -77 80
-99 78 -5 0 -29 -6 -52 -13z"/>
<path d="M5776 16453 c-123 -126 -263 -273 -312 -328 -92 -104 -541 -627 -605
-706 -25 -30 -50 -49 -75 -57 -60 -18 -223 -99 -265 -133 -21 -17 -43 -27 -52
-23 -9 3 -41 -2 -72 -10 -106 -31 -221 -166 -304 -357 l-34 -76 -131 -6 c-154
-6 -238 -27 -371 -92 -49 -24 -120 -67 -156 -94 -85 -65 -221 -208 -279 -294
-25 -36 -50 -65 -56 -63 -5 2 -59 9 -120 16 -94 10 -117 10 -170 -4 -35 -9
-101 -16 -150 -16 -276 1 -488 130 -610 372 -18 36 -38 69 -43 73 -29 18 -114
-61 -184 -170 -113 -178 -159 -326 -126 -412 5 -15 63 -81 127 -146 102 -103
115 -119 104 -135 -63 -89 -108 -193 -120 -275 l-7 -52 -79 -40 c-66 -33 -88
-39 -140 -39 -33 0 -76 6 -93 14 -48 21 -57 6 -61 -103 -4 -102 18 -212 64
-315 32 -73 50 -92 88 -92 56 0 149 -30 256 -82 87 -42 117 -63 176 -122 74
-75 171 -199 196 -251 9 -16 18 -50 22 -74 9 -59 34 -91 96 -125 52 -28 53
-29 176 -22 141 9 143 8 225 -70 69 -65 169 -131 222 -145 22 -6 68 -8 106 -4
166 16 227 69 258 222 9 43 27 100 40 127 44 87 55 129 63 231 8 110 30 170
74 199 25 16 124 42 131 34 2 -2 -2 -26 -11 -53 -24 -81 8 -187 88 -287 22
-28 31 -51 33 -86 1 -26 21 -98 45 -161 73 -197 75 -205 75 -346 -1 -104 -8
-175 -38 -355 -73 -430 -114 -582 -196 -720 -77 -129 -523 -548 -700 -658
-168 -104 -306 -173 -388 -193 -43 -11 -86 -25 -97 -32 -17 -12 -24 -7 -66 38
-26 27 -58 70 -70 94 -32 65 -114 147 -166 167 -69 26 -167 5 -242 -53 -105
-79 -115 -307 -19 -412 32 -35 113 -70 180 -77 31 -4 57 -11 57 -15 0 -5 15
-17 34 -25 32 -16 33 -18 25 -55 -6 -27 -5 -51 5 -79 l14 -41 -75 -37 c-41
-20 -88 -51 -104 -69 -23 -27 -36 -33 -67 -33 -99 0 -210 -61 -243 -133 -34
-75 -19 -233 31 -340 42 -89 124 -146 211 -147 150 -1 268 103 269 236 0 42 5
55 29 78 16 16 35 40 41 55 7 18 30 37 67 55 l57 28 82 -42 c45 -23 92 -53
105 -67 28 -29 46 -118 57 -288 9 -130 33 -192 91 -231 64 -42 157 -48 242
-15 69 26 129 129 129 221 0 86 -62 212 -121 247 -25 15 -29 22 -24 45 5 21 1
30 -14 40 -16 10 -21 23 -21 55 0 23 -5 54 -10 69 -8 20 -7 31 4 43 23 26 52
92 71 161 23 87 76 190 140 275 81 107 381 426 623 661 l217 212 6 98 c8 121
24 170 99 299 128 222 279 550 345 751 91 276 110 291 409 329 277 35 436 91
496 175 20 28 21 28 58 14 20 -7 56 -18 80 -24 34 -9 42 -15 42 -34 0 -12 7
-44 14 -71 14 -45 14 -50 -5 -73 -10 -14 -19 -30 -19 -36 0 -6 -28 -42 -61
-81 -445 -510 -767 -1176 -868 -1800 -41 -251 -50 -555 -25 -785 l6 -55 -208
-129 c-115 -72 -292 -181 -394 -244 -287 -178 -689 -447 -873 -585 -248 -187
-383 -303 -573 -492 -243 -242 -375 -414 -488 -635 -151 -294 -190 -551 -137
-900 121 -801 388 -1302 914 -1718 141 -112 277 -203 622 -420 409 -257 586
-347 1040 -527 450 -179 657 -282 842 -421 229 -171 386 -363 512 -624 81
-168 122 -296 191 -595 184 -795 378 -1208 648 -1383 85 -55 142 -72 259 -78
54 -2 124 -8 156 -12 40 -6 83 -5 135 4 75 14 77 15 148 85 72 72 72 72 124
218 69 193 98 346 111 596 l12 200 -38 90 c-20 50 -71 167 -112 260 -71 159
-83 178 -181 300 -93 114 -258 293 -479 520 -130 132 -376 317 -653 489 -428
266 -920 509 -1650 815 -905 379 -1446 752 -1751 1204 -136 203 -213 390 -251
612 -17 100 -19 147 -15 285 6 176 20 258 68 405 154 464 555 910 1195 1328
161 105 442 268 549 317 107 50 266 112 272 107 8 -9 -77 -323 -102 -372 -14
-29 -39 -59 -59 -72 -45 -29 -81 -78 -97 -133 -11 -36 -37 -68 -145 -175 -147
-144 -197 -215 -238 -331 -31 -87 -89 -210 -113 -236 -8 -9 -44 -34 -81 -55
-116 -67 -207 -171 -226 -258 -9 -41 15 -116 53 -164 44 -55 156 -138 215
-157 65 -22 148 -15 179 14 l24 22 19 -21 c34 -37 93 -80 113 -82 14 -1 21
-11 25 -37 15 -95 111 -193 225 -227 82 -25 206 -24 251 3 76 44 110 145 90
262 -30 163 -20 366 21 478 15 39 37 66 98 122 106 96 146 172 145 276 0 74
-33 194 -58 215 -23 20 -39 96 -32 155 9 66 51 154 183 378 88 151 114 184
257 343 268 297 266 296 568 330 261 29 527 49 536 41 10 -11 -47 -694 -67
-796 -11 -52 -29 -121 -40 -152 -30 -77 -217 -454 -275 -553 -66 -110 -81
-125 -130 -125 -55 0 -158 -25 -207 -51 -93 -47 -175 -165 -201 -291 -15 -72
-1 -137 53 -249 l40 -83 -26 -135 c-90 -468 -163 -775 -264 -1108 -85 -280
-120 -369 -193 -491 -80 -131 -128 -264 -128 -352 0 -93 72 -191 177 -240 124
-58 297 -72 391 -30 53 23 132 99 132 127 0 15 5 14 130 -18 41 -11 97 -32
125 -47 41 -22 55 -38 83 -92 86 -169 255 -261 482 -263 92 -1 125 10 170 58
21 22 25 38 28 99 7 123 -49 263 -192 486 -34 52 -74 124 -89 160 -36 84 -70
142 -110 187 l-31 36 -1 306 c0 303 -1 307 -30 431 -24 103 -29 146 -29 245 0
112 3 128 38 235 129 391 323 807 477 1024 100 140 129 161 428 308 l266 130
150 156 c83 85 245 251 361 366 116 116 232 239 258 273 211 282 356 653 411
1053 54 394 23 1171 -64 1611 -102 520 -244 882 -453 1160 -34 45 -134 156
-222 247 -198 203 -327 314 -687 590 -242 185 -363 342 -793 1023 -79 126
-274 321 -481 482 -194 151 -444 298 -641 377 l-82 33 15 51 c41 140 59 166
193 277 69 57 182 159 251 227 103 100 134 138 169 203 39 72 166 237 217 282
20 18 22 17 78 -63 84 -120 156 -188 255 -239 198 -102 275 -162 368 -286 41
-55 89 -129 105 -164 29 -61 30 -66 24 -170 -4 -58 -13 -129 -22 -157 -8 -28
-28 -133 -45 -234 -32 -192 -36 -203 -82 -262 -52 -67 -72 -125 -72 -213 -1
-64 4 -90 23 -128 47 -96 139 -139 240 -112 65 17 96 37 121 78 28 45 25 93
-10 189 -16 45 -30 90 -30 100 0 11 20 53 45 95 24 42 52 106 61 143 l17 66
66 36 c96 54 176 121 218 184 36 54 38 56 73 49 19 -3 136 -8 259 -11 l224 -4
102 -61 c74 -44 111 -73 133 -105 91 -129 237 -135 359 -16 62 60 69 98 37
194 -21 63 -34 84 -73 121 -65 61 -116 76 -179 54 -100 -36 -121 -27 -327 133
-66 51 -137 101 -158 110 l-37 17 20 25 c18 24 27 26 118 30 120 4 180 30 227
97 29 42 30 45 30 164 0 182 -36 277 -122 325 -61 34 -186 55 -246 42 -122
-26 -169 -85 -192 -241 -21 -142 -57 -180 -188 -200 -34 -6 -78 -12 -98 -16
-55 -8 -104 13 -163 70 -65 65 -116 141 -302 448 -217 360 -293 469 -404 577
-151 147 -264 212 -371 212 l-49 0 -224 -227z m-1876 -2007 c0 -2 -14 -35 -31
-73 -37 -82 -159 -483 -159 -522 0 -17 -10 -37 -26 -52 -35 -31 -121 -134
-126 -149 -3 -9 -23 -6 -75 11 l-72 23 6 61 c7 78 -16 161 -57 205 l-30 32 26
51 c120 239 330 407 522 416 12 1 22 -1 22 -3z"/>
</g>
</svg>
