<?xml version="1.0" standalone="no"?>
<!DOCTYPE svg PUBLIC "-//W3C//DTD SVG 20010904//EN"
 "http://www.w3.org/TR/2001/REC-SVG-20010904/DTD/svg10.dtd">
<svg version="1.0" xmlns="http://www.w3.org/2000/svg"
 width="1346.000000pt" height="2162.000000pt" viewBox="0 0 1346.000000 2162.000000"
 preserveAspectRatio="xMidYMid meet">

<g transform="translate(0.000000,2162.000000) scale(0.100000,-0.100000)"
fill="#000000" stroke="none">
<path d="M5776 16453 c-123 -126 -263 -273 -312 -328 -92 -104 -541 -627 -605
-706 -25 -30 -50 -49 -75 -57 -60 -18 -223 -99 -265 -133 -21 -17 -43 -27 -52
-23 -9 3 -41 -2 -72 -10 -106 -31 -221 -166 -304 -357 l-34 -76 -131 -6 c-154
-6 -238 -27 -371 -92 -49 -24 -120 -67 -156 -94 -85 -65 -221 -208 -279 -294
-25 -36 -50 -65 -56 -63 -5 2 -59 9 -120 16 -94 10 -117 10 -170 -4 -35 -9
-101 -16 -150 -16 -276 1 -488 130 -610 372 -18 36 -38 69 -43 73 -29 18 -114
-61 -184 -170 -113 -178 -159 -326 -126 -412 5 -15 63 -81 127 -146 102 -103
115 -119 104 -135 -63 -89 -108 -193 -120 -275 l-7 -52 -79 -40 c-66 -33 -88
-39 -140 -39 -33 0 -76 6 -93 14 -48 21 -57 6 -61 -103 -4 -102 18 -212 64
-315 32 -73 50 -92 88 -92 56 0 149 -30 256 -82 87 -42 117 -63 176 -122 74
-75 171 -199 196 -251 9 -16 18 -50 22 -74 9 -59 34 -91 96 -125 52 -28 53
-29 176 -22 141 9 143 8 225 -70 69 -65 169 -131 222 -145 22 -6 68 -8 106 -4
166 16 227 69 258 222 9 43 27 100 40 127 44 87 55 129 63 231 8 110 30 170
74 199 25 16 124 42 131 34 2 -2 -2 -26 -11 -53 -24 -81 8 -187 88 -287 22
-28 31 -51 33 -86 1 -26 21 -98 45 -161 73 -197 75 -205 75 -346 -1 -104 -8
-175 -38 -355 -73 -430 -114 -582 -196 -720 -77 -129 -523 -548 -700 -658
-168 -104 -306 -173 -388 -193 -43 -11 -86 -25 -97 -32 -17 -12 -24 -7 -66 38
-26 27 -58 70 -70 94 -32 65 -114 147 -166 167 -69 26 -167 5 -242 -53 -105
-79 -115 -307 -19 -412 32 -35 113 -70 180 -77 31 -4 57 -11 57 -15 0 -5 15
-17 34 -25 32 -16 33 -18 25 -55 -6 -27 -5 -51 5 -79 l14 -41 -75 -37 c-41
-20 -88 -51 -104 -69 -23 -27 -36 -33 -67 -33 -99 0 -210 -61 -243 -133 -34
-75 -19 -233 31 -340 42 -89 124 -146 211 -147 150 -1 268 103 269 236 0 42 5
55 29 78 16 16 35 40 41 55 7 18 30 37 67 55 l57 28 82 -42 c45 -23 92 -53
105 -67 28 -29 46 -118 57 -288 9 -130 33 -192 91 -231 64 -42 157 -48 242
-15 69 26 129 129 129 221 0 86 -62 212 -121 247 -25 15 -29 22 -24 45 5 21 1
30 -14 40 -16 10 -21 23 -21 55 0 23 -5 54 -10 69 -8 20 -7 31 4 43 23 26 52
92 71 161 23 87 76 190 140 275 81 107 381 426 623 661 l217 212 6 98 c8 121
24 170 99 299 128 222 279 550 345 751 91 276 110 291 409 329 277 35 436 91
496 175 20 28 21 28 58 14 20 -7 56 -18 80 -24 34 -9 42 -15 42 -34 0 -12 7
-44 14 -71 14 -45 14 -50 -5 -73 -10 -14 -19 -30 -19 -36 0 -6 -28 -42 -61
-81 -445 -510 -767 -1176 -868 -1800 -41 -251 -50 -555 -25 -785 l6 -55 -208
-129 c-115 -72 -292 -181 -394 -244 -287 -178 -689 -447 -873 -585 -248 -187
-383 -303 -573 -492 -243 -242 -375 -414 -488 -635 -151 -294 -190 -551 -137
-900 121 -801 388 -1302 914 -1718 141 -112 277 -203 622 -420 409 -257 586
-347 1040 -527 450 -179 657 -282 842 -421 229 -171 386 -363 512 -624 81
-168 122 -296 191 -595 184 -795 378 -1208 648 -1383 84 -54 142 -72 254 -78
51 -2 122 -8 157 -13 43 -5 89 -3 139 6 75 13 77 14 148 84 l72 72 56 156 c69
197 94 330 108 588 l11 202 -83 193 c-46 106 -98 225 -116 263 -53 114 -222
311 -611 710 -129 132 -376 317 -653 489 -428 266 -920 509 -1650 815 -905
379 -1446 752 -1751 1204 -136 203 -213 390 -251 612 -17 100 -19 147 -15 285
6 176 20 258 68 405 154 464 555 910 1195 1328 161 105 442 268 549 317 107
50 266 112 272 107 8 -9 -77 -323 -102 -372 -14 -29 -39 -59 -59 -72 -45 -29
-81 -78 -97 -133 -11 -36 -37 -68 -145 -175 -147 -144 -197 -215 -238 -331
-31 -87 -89 -210 -113 -236 -8 -9 -44 -34 -81 -55 -116 -67 -207 -171 -226
-258 -9 -41 15 -116 53 -164 44 -55 156 -138 215 -157 65 -22 148 -15 179 14
l24 22 19 -21 c34 -37 93 -80 113 -82 14 -1 21 -11 25 -37 15 -95 111 -193
225 -227 82 -25 206 -24 251 3 76 44 110 145 90 262 -30 163 -20 366 21 478
15 39 37 66 98 122 106 96 146 172 145 276 0 74 -33 194 -58 215 -23 20 -39
96 -32 155 9 66 51 154 183 378 88 151 114 184 257 343 268 297 266 296 568
330 261 29 527 49 536 41 10 -11 -47 -694 -67 -796 -11 -52 -29 -121 -40 -152
-30 -77 -217 -454 -275 -553 -66 -110 -81 -125 -130 -125 -55 0 -158 -25 -207
-51 -93 -47 -175 -165 -201 -291 -15 -72 -1 -137 53 -249 l40 -83 -26 -135
c-90 -468 -163 -775 -264 -1108 -85 -280 -120 -369 -193 -491 -80 -131 -128
-264 -128 -352 0 -93 72 -191 177 -240 124 -58 297 -72 391 -30 53 23 132 99
132 127 0 15 5 14 130 -18 41 -11 97 -32 125 -47 41 -22 55 -38 83 -92 86
-169 255 -261 482 -263 92 -1 125 10 170 58 21 22 25 38 28 99 7 123 -49 263
-192 486 -34 52 -74 124 -89 160 -36 84 -70 142 -110 187 l-31 36 -1 306 c0
303 -1 307 -30 431 -24 103 -29 146 -29 245 0 112 3 128 38 235 129 391 323
807 477 1024 100 140 129 161 428 308 l266 131 111 111 c60 61 157 161 215
221 57 61 162 166 233 235 257 249 402 482 516 829 79 239 113 434 129 732 15
274 -11 806 -55 1119 -59 426 -179 843 -319 1108 -109 205 -220 345 -457 577
-176 174 -256 242 -533 457 -221 172 -318 267 -446 438 -98 130 -275 394 -369
550 -91 150 -139 210 -269 340 -265 263 -612 498 -917 620 l-82 33 15 51 c41
140 59 166 193 277 69 57 182 159 251 227 103 100 134 138 169 203 39 72 166
237 217 282 20 18 22 17 78 -63 84 -120 156 -188 255 -239 198 -102 275 -162
368 -286 41 -55 89 -129 105 -164 29 -61 30 -66 24 -170 -4 -58 -13 -129 -22
-157 -8 -28 -28 -133 -45 -234 -32 -192 -36 -203 -82 -262 -116 -148 -94 -369
44 -440 72 -38 183 -21 245 36 52 47 55 103 14 215 -17 47 -31 93 -31 104 0
10 18 49 40 85 38 65 80 169 80 201 0 9 29 31 69 53 92 50 181 125 221 187 32
49 34 50 74 45 101 -12 269 -19 361 -13 l100 6 117 -69 c65 -38 119 -77 123
-87 8 -27 80 -90 124 -108 104 -44 268 43 302 159 7 26 4 49 -17 110 -20 63
-34 84 -73 121 -65 61 -116 76 -179 54 -96 -35 -120 -25 -307 118 -77 59 -157
115 -178 125 l-37 17 20 25 c18 24 27 26 118 30 120 4 180 30 227 97 30 43 30
44 29 174 -1 156 -22 228 -84 288 -71 68 -259 96 -347 51 -80 -42 -115 -104
-132 -240 -15 -122 -56 -162 -188 -183 -37 -6 -82 -13 -100 -16 -50 -8 -100
15 -157 70 -65 64 -113 135 -301 447 -220 364 -294 470 -405 578 -151 147
-264 212 -371 212 l-49 0 -224 -227z m-1876 -2007 c0 -2 -14 -35 -31 -73 -37
-82 -159 -483 -159 -522 0 -17 -10 -37 -26 -52 -35 -31 -121 -134 -126 -149
-3 -9 -23 -6 -75 11 l-72 23 6 61 c7 78 -16 161 -57 205 l-30 32 26 51 c120
239 330 407 522 416 12 1 22 -1 22 -3z"/>
</g>
</svg>
